<svg xmlns="http://www.w3.org/2000/svg" width="53" height="53" viewBox="0 0 53 53" fill="none">
<g clip-path="url(#clip0_1113_52)">
<path d="M26.4744 0.0871582C11.8973 0.0871582 0.0797119 11.9044 0.0797119 26.4815C0.0797119 41.0592 11.8973 52.8755 26.4744 52.8755C41.053 52.8755 52.8693 41.0592 52.8693 26.4815C52.8693 11.9054 41.0533 0.0871582 26.4744 0.0871582ZM38.5788 38.1554C38.106 38.9307 37.0911 39.1766 36.3157 38.7006C30.1186 34.9153 22.3171 34.0579 13.1294 36.1571C12.244 36.3588 11.3615 35.8041 11.1598 34.9184C10.9571 34.0327 11.5096 33.1502 12.3972 32.9485C22.4516 30.6514 31.0761 31.6405 38.0335 35.8923C38.8089 36.3683 39.0547 37.38 38.5788 38.1554ZM41.8094 30.9685C41.2137 31.9367 39.9467 32.2425 38.9791 31.6468C31.8842 27.2859 21.0692 26.0229 12.6774 28.5702C11.5891 28.899 10.4396 28.2856 10.1093 27.1992C9.78146 26.1108 10.3951 24.9636 11.4816 24.6326C21.0673 21.7241 32.9842 23.133 41.1318 28.1397C42.0994 28.7354 42.4051 30.0021 41.8094 30.9685ZM42.0868 23.4847C33.5799 18.432 19.5447 17.9674 11.4226 20.4324C10.1184 20.828 8.73914 20.0917 8.3439 18.7875C7.94866 17.4826 8.6843 16.1043 9.98949 15.7078C19.313 12.8774 34.8123 13.4243 44.6064 19.2385C45.7821 19.9348 46.1666 21.4499 45.47 22.6214C44.7766 23.7945 43.2561 24.1813 42.0868 23.4847Z" fill="#F5F5F5"/>
</g>
<defs>
<clipPath id="clip0_1113_52">
<rect width="53" height="53" fill="white"/>
</clipPath>
</defs>
</svg>